HIERARCHY
ROOT Bip001_Pelvis
{
  OFFSET 7.937 94.8971 -8.5489
  CHANNELS 6 Xposition Yposition Zposition Zrotation Xrotation Yrotation
  JOINT Bip001_Spine
  {
    OFFSET 1.44608e-005 10.4157 -0.0118244
    CHANNELS 3 Zrotation Xrotation Yrotation
    JOINT Bip001_L_Thigh
    {
      OFFSET 11.2582 -10.4157 0.0118432
      CHANNELS 3 Zrotation Xrotation Yrotation
      JOINT Bip001_L_Calf
      {
        OFFSET -0.720717 -44.8687 0.366937
        CHANNELS 3 Zrotation Xrotation Yrotation
        JOINT Bip001_L_Foot
        {
          OFFSET -0.664439 -41.3745 -3.62995
          CHANNELS 3 Zrotation Xrotation Yrotation
          JOINT Bip001_L_Toe0
          {
            OFFSET 0.0541047 -10.4146 13.4033
            CHANNELS 3 Zrotation Xrotation Yrotation
            End Site
            {
              OFFSET -1.04503e-005 0 7.70137
            }
          }
        }
      }
    }
    JOINT Bip001_R_Thigh
    {
      OFFSET -11.2582 -10.4156 0.0118122
      CHANNELS 3 Zrotation Xrotation Yrotation
      JOINT Bip001_R_Calf
      {
        OFFSET 0.72059 -44.8687 0.36676
        CHANNELS 3 Zrotation Xrotation Yrotation
        JOINT Bip001_R_Foot
        {
          OFFSET 0.664321 -41.3745 -3.62979
          CHANNELS 3 Zrotation Xrotation Yrotation
          JOINT Bip001_R_Toe0
          {
            OFFSET -0.05417 -10.4146 13.4033
            CHANNELS 3 Zrotation Xrotation Yrotation
            End Site
            {
              OFFSET -1.04873e-005 0 7.70137
            }
          }
        }
      }
    }
    JOINT Bip001_Spine1
    {
      OFFSET 1.90638e-005 14.8539 1.10727
      CHANNELS 3 Zrotation Xrotation Yrotation
      JOINT Bip001_Spine2
      {
        OFFSET 2.28934e-005 14.7848 -1.7233
        CHANNELS 3 Zrotation Xrotation Yrotation
        JOINT Bip001_Neck
        {
          OFFSET 2.24514e-005 15.6905 -0.498826
          CHANNELS 3 Zrotation Xrotation Yrotation
          JOINT Bip001_L_Clavicle
          {
            OFFSET 6.17691 -0.000591152 0.00852867
            CHANNELS 3 Zrotation Xrotation Yrotation
            JOINT Bip001_L_UpperArm
            {
              OFFSET 11.773 -0.0611878 0.00197697
              CHANNELS 3 Zrotation Xrotation Yrotation
              JOINT Bip001_L_Forearm
              {
                OFFSET 26.4515 0.0817568 -2.19579
                CHANNELS 3 Zrotation Xrotation Yrotation
                JOINT Bip001_L_Hand
                {
                  OFFSET 32.8677 0.156744 1.67112
                  CHANNELS 3 Zrotation Xrotation Yrotation
                  JOINT Bip001_L_Finger0
                  {
                    OFFSET 6.16268 -2.25226 6.01674
                    CHANNELS 3 Zrotation Xrotation Yrotation
                    End Site
                    {
                      OFFSET 4.30499 -1.46662 0.618148
                    }
                  }
                  JOINT Bip001_L_Finger1
                  {
                    OFFSET 11.2957 -0.718374 -0.201963
                    CHANNELS 3 Zrotation Xrotation Yrotation
                    End Site
                    {
                      OFFSET 6.31952 -0.405163 -0.0802303
                    }
                  }
                }
              }
            }
          }
          JOINT Bip001_R_Clavicle
          {
            OFFSET -6.17691 -0.000574027 0.00851165
            CHANNELS 3 Zrotation Xrotation Yrotation
            JOINT Bip001_R_UpperArm
            {
              OFFSET -11.773 -0.0611516 0.00194365
              CHANNELS 3 Zrotation Xrotation Yrotation
              JOINT Bip001_R_Forearm
              {
                OFFSET -26.4514 0.0822334 -2.19736
                CHANNELS 3 Zrotation Xrotation Yrotation
                JOINT Bip001_R_Hand
                {
                  OFFSET -32.8677 0.156817 1.67144
                  CHANNELS 3 Zrotation Xrotation Yrotation
                  JOINT Bip001_R_Finger0
                  {
                    OFFSET -6.1627 -2.25224 6.0167
                    CHANNELS 3 Zrotation Xrotation Yrotation
                    End Site
                    {
                      OFFSET -4.30499 -1.46662 0.618134
                    }
                  }
                  JOINT Bip001_R_Finger1
                  {
                    OFFSET -11.2958 -0.718344 -0.201994
                    CHANNELS 3 Zrotation Xrotation Yrotation
                    End Site
                    {
                      OFFSET -6.31952 -0.405146 -0.0802475
                    }
                  }
                }
              }
            }
          }
          JOINT Bip001_Head
          {
            OFFSET 1.11782e-005 11.4912 2.09908
            CHANNELS 3 Zrotation Xrotation Yrotation
            End Site
            {
              OFFSET 2.95144e-005 21.2823 -2.83069e-005
            }
          }
        }
      }
    }
  }
}
MOTION
Frames:	9
Frame Time:	0.04
8.32613 95.2331 -9.45065 0.417468 -5.31016 0.172329 -0.033405 1.2683 -0.368223 4.97938 -5.12966 9.89655 -1.16633 16.5153 -0.566238 -2.54452 -6.23667 0.113228 0.656995 -9.91278 -0.214481 -8.24434 -4.25506 0.647666 -0.687722 17.1926 5.21644 0.883613 -8.3298 -11.0012 -0.301615 -11.5327 -0.240243 -0.0989296 2.53693 -0.735579 -0.0989297 2.53693 -0.73558 -2.806 -1.35624 0.433444 -26.989 7.2315 -11.9 -53.1562 39.0105 9.99128 13.4601 2.46214 -25.4278 -3.65526 -0.215458 -2.08176 -8.82781e-032 -3.18055e-015 -1.59028e-015 -3.18055e-015 0 -1.59028e-015 32.4337 6.2236 9.84301 60.1002 21.7472 -22.1481 2.58718 -29.4204 41.4688 8.76809 0.0316767 -19.9502 6.21202e-017 -1.59028e-015 -1.98785e-016 6.21202e-017 -1.59028e-015 -9.93923e-017 -1.18794 3.2269 -0.075353 
8.51892 95.1604 -9.51656 0.40836 -5.09379 -0.277067 -0.0403574 1.18862 -0.503487 4.88797 -5.42882 10.0824 -1.16771 16.9573 -0.717899 -2.39759 -6.56424 0.607289 0.660261 -9.87601 -0.125351 -8.34782 -4.75464 1.22384 -0.6598 17.5627 5.05252 1.05161 -8.44907 -10.7773 -0.326223 -11.5325 -0.277397 -0.119625 2.37771 -1.00645 -0.118043 2.37773 -1.00649 -2.83515 -1.48737 0.814833 -26.6506 7.39229 -11.9581 -53.7319 38.6742 10.6648 13.3556 3.16632 -24.7333 -4.07011 -0.303608 -2.26899 -3.18055e-015 -3.18055e-015 3.97569e-015 -4.77083e-015 -6.36111e-015 2.38542e-015 32.1762 5.86517 8.8257 57.3754 14.0226 -22.5837 2.07031 -24.2969 51.2555 2.58061 0.635458 -17.7757 3.77691e-015 7.95139e-016 -3.18055e-015 3.13086e-015 5.96354e-016 -3.18055e-015 -1.24685 3.26831 0.304747 
8.64562 95.0546 -9.44245 0.451993 -5.12042 -0.479859 -0.0690046 1.16382 -0.697505 4.86065 -5.56125 10.8648 -1.01405 17.5886 -1.20702 -2.32634 -6.99956 0.656997 0.664476 -9.86219 -0.0909564 -8.37635 -5.0238 0.064721 -1.30829 18.1595 6.26425 1.24463 -8.80893 -10.2384 -0.304253 -11.5304 -0.317247 -0.173045 2.3287 -1.3941 -0.172465 2.3287 -1.39411 -2.72705 -1.60707 1.11052 -26.3706 7.61361 -12.2794 -54.6687 37.9885 11.92 13.3771 3.52361 -24.5769 -4.25875 -0.182555 -2.12453 -1.32417e-031 9.54166e-015 7.95139e-016 -1.59028e-015 3.18056e-015 7.95139e-016 31.7614 5.54756 7.87241 53.6438 4.83478 -22.3148 -1.42189 -16.5155 60.1999 -1.64568 1.85194 -15.1735 3.97569e-015 3.97569e-016 3.18055e-015 1.78906e-015 3.97569e-016 3.18055e-015 -1.41814 3.2233 0.667711 
8.75128 94.9669 -9.36784 0.295429 -5.0836 -0.653521 -0.04482 1.13814 -0.897783 4.89442 -5.80759 11.0232 -0.841433 18.2607 -1.93752 -2.26724 -7.52998 1.402 0.717276 -9.80333 0.0721248 -8.31777 -5.19544 1.06024 -1.03748 18.448 5.90008 1.2294 -8.99385 -10.5058 -0.320155 -11.5278 -0.348817 -0.120528 2.27854 -1.79544 -0.120529 2.27855 -1.79544 -2.7942 -1.50078 1.43364 -26.0001 7.54228 -12.4259 -54.9792 37.9504 12.1749 13.0291 3.7501 -23.9029 -4.39884 -0.252279 -1.97766 4.77083e-015 3.18055e-015 -3.18055e-015 4.77083e-015 9.54167e-015 -3.18055e-015 31.2451 5.09544 7.28276 48.8922 -5.92887 -21.6585 -9.07574 -6.19183 68.9431 -3.68508 3.24935 -12.7257 -3.97569e-016 5.56597e-015 -3.18055e-015 7.95139e-016 4.77083e-015 -0 -1.55916 2.64001 0.988802 
8.89475 94.8908 -9.23203 0.127333 -5.12362 -0.78234 -0.0234995 1.12423 -0.987345 4.90068 -5.94576 10.5684 -0.850662 18.8753 -2.25967 -2.13269 -8.06185 2.26881 0.734151 -9.75528 0.193533 -8.34013 -5.16733 1.17652 -0.912032 18.5945 5.84468 1.32692 -9.15175 -10.3701 -0.373276 -11.5293 -0.319089 -0.0845936 2.24919 -1.97509 -0.0845522 2.2492 -1.97509 -2.72965 -1.43444 1.53238 -25.9151 7.50483 -12.5478 -55.5046 38.6337 12.7165 13.1162 3.36561 -23.3909 -4.65552 -0.356466 -1.77726 4.77083e-015 -3.18055e-015 -1.59028e-015 3.18055e-015 0 -1.59028e-015 30.694 4.8157 6.8617 43.595 -16.9049 -21.3476 -14.5019 2.04302 80.0829 -6.00897 4.73125 -10.3239 -6.36111e-015 3.18055e-015 -6.36111e-015 -7.15625e-015 4.77083e-015 -6.36111e-015 -1.65692 2.33667 1.12602 
9.03505 94.809 -9.131 -0.122352 -4.84426 -0.723237 -0.0122578 1.02977 -0.969787 5.01337 -6.44108 9.95913 -0.818956 19.6156 -2.3188 -2.05229 -8.6115 2.67148 0.761633 -9.68959 0.382364 -8.24396 -5.28044 0.387687 -1.07871 18.6425 6.14687 1.49284 -9.25287 -9.98565 -0.39345 -11.5392 -0.272727 -0.0691453 2.06013 -1.94045 -0.0695359 2.06013 -1.9405 -2.52536 -1.41986 1.50563 -25.9878 7.48301 -12.6063 -55.7207 39.1364 12.9049 13.2026 3.15149 -22.9214 -4.72626 -0.377511 -1.41923 -3.18055e-015 3.18055e-015 7.95139e-016 -3.18055e-015 6.36111e-015 -0 29.9878 4.63192 6.46203 40.0375 -22.3087 -20.3505 -19.0865 3.83599 90.5615 -8.01481 4.7001 -8.8542 1.59028e-015 -9.54166e-015 3.18055e-015 -4.77083e-015 -6.36111e-015 -0 -1.75512 2.32714 1.17841 
9.18379 94.7605 -8.92182 -0.267543 -4.7297 -0.438759 -0.0560945 0.963846 -0.870903 5.15658 -6.6277 10.2161 -0.679178 20.1086 -2.68857 -1.96647 -8.98478 2.35936 0.761641 -9.68084 0.402456 -8.17292 -5.04836 -0.226336 -1.22088 18.5489 6.01596 1.73752 -9.37931 -9.61437 -0.422214 -11.5484 -0.228145 -0.164983 1.92888 -1.74243 -0.164873 1.92889 -1.74216 -2.61112 -1.40392 1.50368 -25.6439 7.45613 -12.7056 -55.4179 39.0943 12.4809 13.1673 3.35126 -22.6782 -4.64105 -0.245442 -1.48724 -3.18055e-015 -6.36111e-015 7.95139e-016 -1.59028e-015 -6.36111e-015 7.95139e-016 29.3307 4.47786 6.2519 37.3699 -25.506 -18.0696 -21.16 2.95231 99.7572 -9.51851 5.48881 -7.47899 -3.18055e-015 -3.18055e-015 -6.36111e-015 -3.18055e-015 -7.95139e-016 -6.36111e-015 -1.38051 2.06137 1.05639 
9.38446 94.6339 -8.86559 -0.241384 -4.20838 0.362241 -0.147232 0.817129 -0.75373 4.99705 -7.49887 9.85836 -0.351594 20.8491 -4.04262 -1.75029 -9.4121 2.94752 0.822266 -9.62739 0.618228 -8.25677 -5.38304 -0.643744 -1.19728 19.052 5.57579 1.90145 -9.79797 -9.64519 -0.411827 -11.5499 -0.252074 -0.351313 1.63656 -1.50671 -0.351315 1.63657 -1.50672 -2.71745 -1.6817 1.51164 -25.1977 7.65215 -12.6157 -54.9639 38.7895 11.7811 13.1738 3.95273 -22.9256 -4.33401 -0.129231 -1.55345 4.41391e-032 -3.18055e-015 7.95139e-016 -1.59028e-015 -6.36111e-015 1.59028e-015 28.2969 4.65705 6.24386 35.2542 -29.3159 -13.3464 -22.5996 1.80583 107.144 -12.6909 5.74877 -6.2416 -6.36111e-015 3.97569e-015 1.59028e-015 -9.54166e-015 4.77083e-015 -0 -0.832353 1.7992 0.907243 
9.57233 94.5294 -8.81406 -0.203005 -3.68778 2.11881 -0.261878 0.683345 -0.673662 4.88643 -8.5658 8.75379 -0.313996 21.6106 -4.37185 -1.54754 -9.58997 2.64155 0.833781 -9.65099 0.58995 -8.31032 -5.35429 -1.31736 -1.0934 19.3168 5.21122 1.84364 -10.2051 -10.3478 -0.288989 -11.5454 -0.393552 -0.563699 1.37 -1.34508 -0.563697 1.37 -1.34508 -2.47659 -1.96596 1.24726 -25.2237 7.77289 -12.2994 -54.2028 39.1982 10.8309 13.2369 3.52402 -23.5257 -4.66611 -0.392304 -1.88998 -1.59028e-015 0 -1.59028e-015 -1.59028e-015 3.18056e-015 -2.38542e-015 26.4741 5.00767 6.70369 34.5374 -33.7427 -3.99364 -23.1138 0.37465 111.316 -14.8255 5.65213 -5.7331 -3.18055e-015 -4.17448e-015 -1.19271e-015 -2.40006e-031 -5.76476e-015 -2.38542e-015 -0.703537 1.24294 0.689619 
